<svg xmlns="http://www.w3.org/2000/svg" width="805" height="600"><rect width="805" height="600" x="0" y="0" fill="#FFFFFF" id="background"/><g id="viz"><g transform="translate(0,0)"><g transform="translate(50,20)"><g class="bars"><rect id="undefined - Série A" x="0.9986595174262902" y="240.00000000000003" height="320" width="73.4014745308311" fill="#9467bd"/><rect id="undefined - Série B" x="75.39879356568366" y="160" height="400" width="73.4014745308311" fill="#d62728"/><rect id="undefined - Série C" x="149.79892761394103" y="80.00000000000003" height="480" width="73.4014745308311" fill="#bcbd22"/><rect id="undefined - Série D" x="224.1990616621984" y="208" height="352" width="73.4014745308311" fill="#1f77b4"/><rect id="undefined - Série E" x="298.5991957104558" y="272" height="288" width="73.4014745308311" fill="#2ca02c"/><rect id="undefined - Série F" x="372.99932975871315" y="0" height="560" width="73.4014745308311" fill="#17becf"/><rect id="undefined - Série G" x="447.3994638069705" y="111.99999999999997" height="448" width="73.4014745308311" fill="#e377c2"/><rect id="undefined - Série H" x="521.799597855228" y="256" height="304" width="73.4014745308311" fill="#8c564b"/><rect id="undefined - Série I" x="596.1997319034853" y="64.00000000000003" height="496" width="73.4014745308311" fill="#ff7f0e"/><rect id="undefined - Série J" x="670.5998659517426" y="176" height="384" width="73.4014745308311" fill="#7f7f7f"/></g><g id="xAxis" transform="translate(0,560)" fill="none" font-size="10" font-family="sans-serif" text-anchor="middle"><path class="domain" stroke="currentColor" d="M0,0H745"/><g class="tick" opacity="1" transform="translate(37.69939678284184,0)"><line stroke="currentColor" y2="6"/><text fill="currentColor" y="9" dy="0.71em">Série A</text></g><g class="tick" opacity="1" transform="translate(112.0995308310992,0)"><line stroke="currentColor" y2="6"/><text fill="currentColor" y="9" dy="0.71em">Série B</text></g><g class="tick" opacity="1" transform="translate(186.49966487935657,0)"><line stroke="currentColor" y2="6"/><text fill="currentColor" y="9" dy="0.71em">Série C</text></g><g class="tick" opacity="1" transform="translate(260.899798927614,0)"><line stroke="currentColor" y2="6"/><text fill="currentColor" y="9" dy="0.71em">Série D</text></g><g class="tick" opacity="1" transform="translate(335.29993297587134,0)"><line stroke="currentColor" y2="6"/><text fill="currentColor" y="9" dy="0.71em">Série E</text></g><g class="tick" opacity="1" transform="translate(409.7000670241287,0)"><line stroke="currentColor" y2="6"/><text fill="currentColor" y="9" dy="0.71em">Série F</text></g><g class="tick" opacity="1" transform="translate(484.1002010723861,0)"><line stroke="currentColor" y2="6"/><text fill="currentColor" y="9" dy="0.71em">Série G</text></g><g class="tick" opacity="1" transform="translate(558.5003351206435,0)"><line stroke="currentColor" y2="6"/><text fill="currentColor" y="9" dy="0.71em">Série H</text></g><g class="tick" opacity="1" transform="translate(632.9004691689008,0)"><line stroke="currentColor" y2="6"/><text fill="currentColor" y="9" dy="0.71em">Série I</text></g><g class="tick" opacity="1" transform="translate(707.3006032171581,0)"><line stroke="currentColor" y2="6"/><text fill="currentColor" y="9" dy="0.71em">Série J</text></g><text x="745" y="-4" text-anchor="end" style="font-family: Arial, sans-serif; font-size: 12px; fill: rgb(123, 123, 123); font-weight: bold;">serieLabel</text></g><g id="yAxis" fill="none" font-size="10" font-family="sans-serif" text-anchor="end"><path class="domain" stroke="currentColor" d="M-6,560H0V0H-6"/><g class="tick" opacity="1" transform="translate(0,560)"><line stroke="currentColor" x2="-6"/><text fill="currentColor" x="-9" dy="0.32em">0</text></g><g class="tick" opacity="1" transform="translate(0,480.00000000000006)"><line stroke="currentColor" x2="-6"/><text fill="currentColor" x="-9" dy="0.32em">5</text></g><g class="tick" opacity="1" transform="translate(0,400)"><line stroke="currentColor" x2="-6"/><text fill="currentColor" x="-9" dy="0.32em">10</text></g><g class="tick" opacity="1" transform="translate(0,320)"><line stroke="currentColor" x2="-6"/><text fill="currentColor" x="-9" dy="0.32em">15</text></g><g class="tick" opacity="1" transform="translate(0,240.00000000000003)"><line stroke="currentColor" x2="-6"/><text fill="currentColor" x="-9" dy="0.32em">20</text></g><g class="tick" opacity="1" transform="translate(0,160)"><line stroke="currentColor" x2="-6"/><text fill="currentColor" x="-9" dy="0.32em">25</text></g><g class="tick" opacity="1" transform="translate(0,80.00000000000003)"><line stroke="currentColor" x2="-6"/><text fill="currentColor" x="-9" dy="0.32em">30</text></g><g class="tick" opacity="1" transform="translate(0,0)"><line stroke="currentColor" x2="-6"/><text fill="currentColor" x="-9" dy="0.32em">35</text></g><text x="4" text-anchor="start" dominant-baseline="hanging" style="font-family: Arial, sans-serif; font-size: 12px; fill: rgb(123, 123, 123); font-weight: bold;">nombreEpisodes [sum]</text></g></g><text y="4" x="4" style="font-family: Arial, sans-serif; font-size: 12px; fill: black; font-weight: bold; dominant-baseline: hanging;"/></g></g></svg>